# xmcd CD database file
#
# Track frame offsets:
#	150
#	15705
#	34747
#	44200
#	55635
#	73382
#	87327
#	99377
#	112447
#	126340
#	142237
#	155685
#
# Disc length: 2281 seconds
#
# Revision: 0
# Processed by: cddbd v1.5.1PL0 Copyright (c) Steve Scherf et al.
# Submitted via: CDex 1.51
#
DISCID=bb08e70c
DTITLE=Helt Oncale - Southern Times
DYEAR=1900
DGENRE=Country
TTITLE0=Southern Ladies
TTITLE1=California Turnaround
TTITLE2=Diggy Diggy Lo
TTITLE3=Taylor
TTITLE4=Fishin'
TTITLE5=Boat On The Water
TTITLE6=Red Dress
TTITLE7=Honky Tonk
TTITLE8=He's Country
TTITLE9=Lone Star Swing
TTITLE10=Easy Living
TTITLE11=Nooksack River
EXTD=
EXTT0=
EXTT1=
EXTT2=
EXTT3=
EXTT4=
EXTT5=
EXTT6=
EXTT7=
EXTT8=
EXTT9=
EXTT10=
EXTT11=
PLAYORDER=
